# AST/ASF file generated using VICON BodyLanguage
# -----------------------------------------------
:version 1.10
:name VICON
:units
  mass 1.0
  length 0.45
  angle deg
:documentation
   .ast/.asf automatically generated from VICON data using
   VICON BodyBuilder and BodyLanguage model FoxedUp or BRILLIANT.MOD
:root
   order TX TY TZ RX RY RZ
   axis XYZ
   position 0 0 0  
   orientation 0 0 0 
:bonedata
  begin
     id 1 
     name lhipjoint
     direction 0.645893 -0.654526 0.392961 
     length 2.38111 
     axis 0 0 0  XYZ
  end
  begin
     id 2 
     name lfemur
     direction 0.34202 -0.939693 0  
     length 6.6822  
     axis 0 0 20  XYZ
    dof rx ry rz
    limits (-160.0 20.0)
           (-70.0 70.0)
           (-60.0 70.0)
  end
  begin
     id 3 
     name ltibia
     direction 0.34202 -0.939693 0   
     length 6.93904   
     axis 0 0 20   XYZ
    dof rx
    limits (-10.0 170.0)
  end
  begin
     id 4 
     name lfoot
     direction 0.0694967 -0.190941 0.979138   
     length 2.13616   
     axis -90 7.62852e-016 20   XYZ
    dof rx rz
    limits (-45.0 90.0)
           (-70.0 20.0)
  end
  begin
     id 5 
     name ltoes
     direction 1.535e-011 -4.2202e-011 1   
     length 1.07536   
     axis -90 7.62852e-016 20   XYZ
    dof rx
    limits (-90.0 20.0)
  end
  begin
     id 6 
     name rhipjoint
     direction -0.700219 -0.612087 0.367481   
     length 2.54621  
     axis 0 0 0  XYZ 
  end
  begin
     id 7 
     name rfemur
     direction -0.34202 -0.939693 0   
     length 6.55353   
     axis 0 0 -20   XYZ
    dof rx ry rz
    limits (-160.0 20.0)
           (-70.0 70.0)
           (-70.0 60.0)
  end
  begin
     id 8 
     name rtibia
     direction -0.34202 -0.939693 0   
     length 6.8736   
     axis 0 0 -20   XYZ
    dof rx
    limits (-10.0 170.0)
 end
 begin
     id 9 
     name rfoot
     direction -0.0679995 -0.186827 0.980037   
     length 2.1218  
     axis -90 -7.62852e-016 -20   XYZ
    dof rx rz
    limits (-45.0 90.0)
           (-20.0 70.0)
  end
  begin
     id 10 
     name rtoes
     direction -1.53589e-011 -4.21772e-011 1   
     length 1.06864   
     axis -90 -7.62852e-016 -20   XYZ
    dof rx
    limits (-90.0 20.0)
  end
  begin
     id 11 
     name lowerback
     direction -0.0416607 0.996347 -0.0745409   
     length 2.12205   
     axis 0 0 0   XYZ
    dof rx ry rz
    limits (-20.0 45.0)
           (-30.0 30.0)
           (-30.0 30.0)
  end
  begin
     id 12 
     name upperback
     direction -0.000153993 0.999276 -0.0380568   
     length 2.12759   
     axis 0 0 0   XYZ
    dof rx ry rz
    limits (-20.0 45.0)
           (-30.0 30.0)
           (-30.0 30.0)
  end
  begin
     id 13 
     name thorax
     direction 0.0187671 0.999821 -0.00241421   
     length 2.13704   
     axis 0 0 0   XYZ
    dof rx ry rz
    limits (-20.0 45.0)
           (-30.0 30.0)
           (-30.0 30.0)
  end
  begin
     id 14 
     name lowerneck
     direction 0.0268157 0.964865 0.261374   
     length 1.65253   
     axis 0 0 0   XYZ
    dof rx ry rz
    limits (-20.0 45.0)
           (-30.0 30.0)
           (-30.0 30.0)
  end
  begin
     id 15 
     name upperneck
     direction 0.00263774 0.939908 -0.341418   
     length 1.72375   
     axis 0 0 0   XYZ
    dof rx ry rz
    limits (-20.0 45.0)
           (-30.0 30.0)
           (-30.0 30.0)
  end
  begin
     id 16
     name head
     direction -0.00526001 0.989001 -0.147818  
     length 1.74878  
     axis 0 0 0   XYZ
    dof rx ry rz
    limits (-20.0 45.0)
           (-30.0 30.0)
           (-30.0 30.0)
  end
  begin
     id 17 
     name lclavicle
     direction 0.881214 0.461162 -0.103884  
     length 3.25108  
     axis 0 0 0   XYZ
    dof ry rz
    limits (-20.0 10.0)
           (0.0 20.0)
  end
  begin
     id 18 
     name lhumerus
     direction 1 -4.4899e-011 3.38092e-027   
     length 4.87408   
     axis 180 -30 -90   XYZ
    dof rx ry rz
    limits (-60.0 90.0)
           (-90.0 90.0)
           (-90.0 90.0)
  end
  begin
     id 19
     name lradius
     direction 1 -4.48931e-011 9.96288e-027   
     length 2.76729   
     axis 180 -30 -90   XYZ
    dof rx
    limits (-10.0 170.0)
  end
  begin
     id 20
     name lwrist
     direction 1 -4.4896e-011 1.50617e-026   
     length 1.38364   
     axis -9.31234e-015 90 90   XYZ
    dof ry
    limits (-180.0 0.0)
 end
  begin
     id 21 
     name lhand
     direction 1 -4.49038e-011 3.01286e-026   
     length 0.98922   
     axis -1.92217e-014 90 90   XYZ
    dof rx rz
    limits (-90.0 90.0)
           (-45.0 45.0)
  end
  begin
     id 22 
     name lfingers
     direction 1 -4.49051e-011 6.02588e-026   
     length 0.797535   
     axis -3.84436e-014 90 90   XYZ
    dof rx
    limits (0.0 90.0)
  end
  begin
     id 23
     name lthumb
     direction 0.707107 -6.34901e-011 0.707107   
     length 1.14511   
     axis -90 45 2.19363e-014   XYZ
    dof rx rz
    limits (-45.0 45.0)
           (-45.0 45.0)
  end
  begin
     id 24 
     name rclavicle
     direction -0.893894 0.441652 -0.0767889   
     length 3.29361  
     axis 0 0 0   XYZ 
    dof ry rz
    limits (-10.0 20.0)
           (-20.0 0.0)
  end
  begin
     id 25 
     name rhumerus
     direction -1 -4.48945e-011 8.0491e-028  
     length 4.71404   
     axis 180 30 90   XYZ
    dof rx ry rz
    limits (-90.0 60.0)
           (-90.0 90.0)
           (-90.0 90.0)
  end
  begin
     id 26 
     name rradius
     direction -1 -4.48986e-011 9.27795e-027   
     length 2.83468   
     axis 180 30 90   XYZ
    dof rx
    limits (-10.0 170.0)
  end
  begin
     id 27 
     name rwrist
     direction -1 -4.49029e-011 1.5064e-026   
     length 1.41734   
     axis -9.31234e-015 -90 -90   XYZ
    dof ry
    limits (-180.0 0.0)
  end
  begin
     id 28
     name rhand
     direction -1 -4.48857e-011 3.01165e-026   
     length 0.868195   
     axis -1.92217e-014 -90 -90   XYZ
    dof rx rz
    limits (-90.0 90.0)
           (-45.0 45.0)
  end
  begin
     id 29
     name rfingers
     direction -1 -4.49048e-011 6.02585e-026   
     length 0.699961   
     axis -3.84436e-014 -90 -90   XYZ
    dof rx
    limits (0.0 90.0)
  end
  begin
     id 30
     name rthumb
     direction -0.707107 -6.34854e-011 0.707107   
     length 1.00501   
     axis -90 -45 -2.19363e-014   XYZ
    dof rx rz
    limits (-45.0 45.0)
           (-45.0 45.0)
  end
:hierarchy
  begin
    root lhipjoint rhipjoint lowerback
    lhipjoint lfemur
    lfemur ltibia
    ltibia lfoot
    lfoot ltoes
    rhipjoint rfemur
    rfemur rtibia
    rtibia rfoot
    rfoot rtoes
    lowerback upperback
    upperback thorax
    thorax lowerneck lclavicle rclavicle
    lowerneck upperneck
    upperneck head
    lclavicle lhumerus
    lhumerus lradius
    lradius lwrist
    lwrist lhand lthumb
    lhand lfingers
    rclavicle rhumerus
    rhumerus rradius
    rradius rwrist
    rwrist rhand rthumb
    rhand rfingers
  end

#!OML:ASF H:\ManfredObstacles\Project 1\Capture day 2\Session 1\male.ASF
:FULLY-SPECIFIED
:DEGREES
50
root 1.37709 14.8992 24.2733 -179.114 -11.5863 184.34
lowerback 7.02534 3.08792 -1.72344
upperback 5.45399 3.55594 -2.16187
thorax 1.73009 1.56265 -1.45963
lowerneck -31.4367 -1.8905 0.0785662
upperneck 39.5128 -6.98289 3.02268
head 21.5252 -2.73866 -0.569503
rclavicle -3.97569e-014 -4.45278e-014
rhumerus -26.2693 7.4761 -90.0561
rradius 49.3936
rwrist 22.4928
rhand -9.05042 -0.455888
rfingers 7.12502
rthumb 16.8979 -29.7407
lclavicle -3.97569e-014 -4.45278e-014
lhumerus -34.8578 -4.57168 76.6329
lradius 35.3624
lwrist -29.3712
lhand -7.04887 8.69144
lfingers 7.12502
lthumb 18.8238 37.8006
rfemur -13.9402 -10.381 28.9818
rtibia 64.8659
rfoot 0.42567 -16.1118
rtoes -28.6179
lfemur -40.1162 -1.77187 -22.0761
ltibia 42.6241
lfoot 9.40006 16.8408
ltoes 9.80881
51
root 1.3659 14.8364 24.178 -179.119 -12.001 184.017
lowerback 7.73326 3.02966 -1.91956
upperback 5.66947 3.398 -2.28538
thorax 1.55781 1.45937 -1.49908
lowerneck -31.5936 -2.00885 -0.00782661
upperneck 39.2632 -7.06903 3.12127
head 21.4107 -2.74983 -0.518812
rclavicle -6.24184e-014 4.45278e-014
rhumerus -25.7045 7.33465 -89.8933
rradius 48.9774
rwrist 22.9349
rhand -8.89806 -0.373295
rfingers 7.12502
rthumb 17.0446 -29.6456
lclavicle -6.24184e-014 4.45278e-014
lhumerus -34.0354 -4.27586 76.6676
lradius 34.8908
lwrist -29.8423
lhand -7.13174 8.79488
lfingers 7.12502
lthumb 18.7441 37.9118
rfemur -15.8424 -10.835 28.4057
rtibia 68.4391
rfoot 1.74104 -15.1167
rtoes -27.0723
lfemur -40.5438 -2.04893 -22.5283
ltibia 44.1487
lfoot 8.38827 17.4606
ltoes 10.2143
52
root 1.35755 14.7739 24.0888 -179.125 -12.3545 183.674
lowerback 8.46298 2.99781 -2.16417
upperback 5.92177 3.26145 -2.38322
thorax 1.40962 1.3616 -1.48443
lowerneck -31.7849 -2.13535 -0.140189
upperneck 39.0014 -7.12697 3.20989
head 21.299 -2.7569 -0.458047
rclavicle 3.93594e-014 6.83819e-014
rhumerus -25.1002 7.26778 -89.6978
rradius 48.5783
rwrist 23.2323
rhand -8.80239 -0.428544
rfingers 7.12502
rthumb 17.1366 -29.6928
lclavicle 3.93594e-014 6.83819e-014
lhumerus -33.1193 -3.95371 76.757
lradius 34.3736
lwrist -30.3769
lhand -7.21808 8.8901
lfingers 7.12502
lthumb 18.6611 38.015
rfemur -17.7958 -11.1698 27.8268
rtibia 71.9506
rfoot 2.689 -14.3136
rtoes -25.3679
lfemur -41.001 -2.15814 -23.0105
ltibia 45.701
lfoot 7.42223 17.8721
ltoes 10.2387
53
root 1.35142 14.7121 24.0044 -179.133 -12.6483 183.359
lowerback 9.19518 3.00008 -2.38777
upperback 6.19257 3.16349 -2.46363
thorax 1.28224 1.28118 -1.46421
lowerneck -31.9625 -2.26509 -0.252371
upperneck 38.715 -7.18163 3.27314
head 21.1649 -2.76322 -0.412448
rclavicle -1.98785e-015 -5.725e-014
rhumerus -24.4907 7.22595 -89.4922
rradius 48.2027
rwrist 23.3464
rhand -8.75874 -0.599167
rfingers 7.12502
rthumb 17.1787 -29.8598
lclavicle -1.98785e-015 -5.725e-014
lhumerus -32.1215 -3.68007 76.8863
lradius 33.816
lwrist -30.9605
lhand -7.29727 8.96895
lfingers 7.12502
lthumb 18.5849 38.1012
rfemur -19.7716 -11.3701 27.3098
rtibia 75.3198
rfoot 3.16141 -13.8644
rtoes -23.7941
lfemur -41.4862 -2.09242 -23.478
ltibia 47.2622
lfoot 6.46223 18.1522
ltoes 10.0536
54
root 1.34662 14.6514 23.924 -179.143 -12.8867 183.118
lowerback 9.90795 3.00707 -2.56913
upperback 6.47929 3.07116 -2.49323
thorax 1.1838 1.20275 -1.41284
lowerneck -32.1481 -2.37658 -0.366921
upperneck 38.4256 -7.18022 3.29054
head 21.0269 -2.75569 -0.375126
rclavicle -5.1684e-015 -2.70347e-014
rhumerus -23.8492 7.30702 -89.2565
rradius 47.8385
rwrist 23.2575
rhand -8.73723 -0.860195
rfingers 7.12502
rthumb 17.1994 -30.119
lclavicle -5.1684e-015 -2.70347e-014
lhumerus -31.0762 -3.34553 77.0647
lradius 33.2395
lwrist -31.6139
lhand -7.35986 9.03919
lfingers 7.12502
lthumb 18.5247 38.1771
rfemur -21.7506 -11.4408 26.902
rtibia 78.48
rfoot 3.20228 -13.8691
rtoes -22.3665
lfemur -41.9955 -1.87239 -23.8868
ltibia 48.8117
lfoot 5.52097 18.334
ltoes 9.74217
